<svg xmlns="http://www.w3.org/2000/svg" width="105.7364" height="105.7364" viewBox="0 0 105.7364 105.7364"><defs><style>.cls-1{fill:none;}.cls-2{fill:#57caee;}</style></defs><title>aAsset 1</title><g id="Layer_2" data-name="Layer 2"><g id="Artwork"><path class="cls-1" d="M0,105.7364V0H105.7364V105.7364ZM29.048,19.7521c-.0085.1488-.0212.2663-.0213.3838q-.003,5.705-.0045,11.41Q29.0045,44.22,28.98,56.8947q-.0252,12.8809-.06,25.7618a.5849.5849,0,0,0,.3188.6208c2.7957,1.5168,5.5789,3.0567,8.3759,4.5711a1.3992,1.3992,0,0,0,.7743.1261c.6311-.0684,1.2539-.2085,1.8834-.2963,3.6269-.5061,7.2553-1.0015,10.8821-1.5079q6.4623-.9024,12.923-1.8166c4.0522-.5706,8.1032-1.1492,12.1576-1.7038.4234-.0579.5681-.18.5667-.6292-.0133-4.3883.0035-8.7766-.0108-13.1649a.7435.7435,0,0,0-.3521-.5212q-4.1535-2.2963-8.3313-4.5488a1.2757,1.2757,0,0,0-.729-.1438c-4.258.5879-8.5133,1.195-12.77,1.7951-.7057.1-1.4135.1855-2.165.2835,0-.2332,0-.3856,0-.538q.0043-3.7945.009-7.5893.031-17.2434.0676-34.4869a.6208.6208,0,0,0-.3482-.6592q-4.0881-2.2-8.1512-4.4458a1.8322,1.8322,0,0,0-1.231-.1981c-2.11.3076-4.2219.5973-6.3328.896C34.007,19.046,31.5571,19.3955,29.048,19.7521Z"/><path class="cls-2" d="M29.048,19.7521c2.5091-.3566,4.959-.7061,7.4094-1.0528,2.1109-.2987,4.2232-.5884,6.3328-.896a1.8322,1.8322,0,0,1,1.231.1981q4.0611,2.2493,8.1512,4.4458a.6208.6208,0,0,1,.3482.6592Q52.4815,40.35,52.453,57.5933q-.0067,3.7947-.009,7.5893c0,.1524,0,.3048,0,.538.7515-.098,1.4593-.1839,2.165-.2835,4.2564-.6,8.5117-1.2072,12.77-1.7951a1.2757,1.2757,0,0,1,.729.1438q4.1768,2.254,8.3313,4.5488a.7435.7435,0,0,1,.3521.5212c.0143,4.3883-.0025,8.7766.0108,13.1649.0014.45-.1433.5713-.5667.6292-4.0544.5546-8.1054,1.1332-12.1576,1.7038q-6.4613.91-12.923,1.8166c-3.6268.5064-7.2552,1.0018-10.8821,1.5079-.63.0878-1.2523.2279-1.8834.2963a1.3992,1.3992,0,0,1-.7743-.1261c-2.797-1.5144-5.58-3.0543-8.3759-4.5711a.5849.5849,0,0,1-.3188-.6208q.0346-12.8808.06-25.7618.0246-12.6745.0423-25.349.0079-5.7049.0045-11.41C29.0268,20.0184,29.04,19.9009,29.048,19.7521ZM49.8066,74.2567V25.0189a1.102,1.102,0,0,0-.1991-.0173c-3.184.4449-6.3671.8967-9.5526,1.3315-.3944.0538-.3932.2841-.3936.5786q-.0472,28.8057-.0991,57.6113c0,.1782.0226.3564.0372.5715l34.4949-4.8487V70.8452ZM36.8743,84.339c0-.2909,0-.4957,0-.7005q.0255-11.4869.05-22.9736.03-17.0883.0615-34.1767a.66.66,0,0,0-.4055-.678c-1.4721-.7816-2.9325-1.5852-4.3983-2.3788-.13-.07-.2685-.1246-.4793-.2213,0,.2523,0,.4346,0,.6169q-.0051,5.7048-.0108,11.41-.0165,10.6867-.0377,21.3734-.0259,12.2613-.0439,24.5225a.7507.7507,0,0,0,.3311.5441c1.5138.8512,3.0442,1.6727,4.5706,2.5014C36.6,84.2254,36.6943,84.26,36.8743,84.339ZM52.4629,71.1671l18.6058-2.6164a36.394,36.394,0,0,0-3.3735-1.94,1.7511,1.7511,0,0,0-.97-.1741c-4.1025.5567-8.2016,1.1391-12.3012,1.7173-.6552.0924-1.3089.1955-1.9608.2932Zm-17.678-49.525-.01.131c1.22.6623,2.4375,1.3282,3.6624,1.9807a.696.696,0,0,0,.3931.0332q3.21-.4332,6.4187-.8792c.5085-.0707,1.0145-.159,1.5217-.2392-1.074-.6961-2.1667-1.2675-3.2325-1.8854a1.8389,1.8389,0,0,0-1.2761-.21c-1.6469.2458-3.2974.4678-4.9462.7014C36.4717,21.3944,35.6285,21.52,34.7849,21.6421Z"/><path class="cls-1" d="M49.8066,74.2567l24.2877-3.4115v9.4006L39.5994,85.0945c-.0146-.2151-.0375-.3933-.0372-.5715q.0492-28.8057.0991-57.6113c0-.2945-.0008-.5248.3936-.5786,3.1855-.4348,6.3686-.8866,9.5526-1.3315a1.102,1.102,0,0,1,.1991.0173Z"/><path class="cls-1" d="M36.8743,84.339c-.18-.0795-.2745-.1136-.3618-.1609-1.5264-.8287-3.0568-1.65-4.5706-2.5014a.7507.7507,0,0,1-.3311-.5441q.0047-12.2613.0439-24.5225.0226-10.6866.0377-21.3734.0089-5.7048.0108-11.41c0-.1823,0-.3646,0-.6169.2108.0967.3494.151.4793.2213,1.4658.7936,2.9262,1.5972,4.3983,2.3788a.66.66,0,0,1,.4055.678q-.0414,17.0883-.0615,34.1767-.02,11.4868-.05,22.9736C36.8739,83.8433,36.8743,84.0481,36.8743,84.339Z"/><path class="cls-1" d="M52.4629,71.1671v-2.72c.6519-.0977,1.3056-.2008,1.9608-.2932,4.1-.5782,8.1987-1.1606,12.3012-1.7173a1.7511,1.7511,0,0,1,.97.1741,36.394,36.394,0,0,1,3.3735,1.94Z"/><path class="cls-1" d="M34.7849,21.6421c.8436-.1226,1.6868-.2477,2.5308-.3673,1.6488-.2336,3.2993-.4556,4.9462-.7014a1.8389,1.8389,0,0,1,1.2761.21c1.0658.6179,2.1585,1.1893,3.2325,1.8854-.5072.08-1.0132.1685-1.5217.2392q-3.2085.4456-6.4187.8792a.696.696,0,0,1-.3931-.0332c-1.2249-.6525-2.4427-1.3184-3.6624-1.9807Z"/></g></g></svg>