<svg xmlns="http://www.w3.org/2000/svg" width="186.1549" height="44.3737" viewBox="0 0 186.1549 44.3737"><defs><style>.cls-1{fill:#57caee;}.cls-2{fill:none;stroke:#5ec090;stroke-miterlimit:10;}</style></defs><title>aAsset 3</title><g id="Layer_2" data-name="Layer 2"><g id="Artwork"><path class="cls-1" d="M.0809,1.25C1.6667,1.0242,3.2151.8033,4.7638.5842,6.098.3954,7.433.2123,8.7664.0179a1.1575,1.1575,0,0,1,.7779.1252q2.5668,1.4215,5.1518,2.81a.3921.3921,0,0,1,.22.4166q-.0248,10.8984-.0427,21.7967-.0044,2.3984-.0057,4.7967c0,.0963,0,.1926,0,.34.475-.0619.9223-.1162,1.3684-.1791,2.69-.3793,5.38-.763,8.0708-1.1346a.8063.8063,0,0,1,.4607.0908q2.64,1.4247,5.2657,2.875a.47.47,0,0,1,.2225.3294c.009,2.7736-.0016,5.5471.0068,8.3207.0009.2841-.0906.361-.3582.3976-2.5625.35-5.1228.7162-7.6839,1.0769q-4.0837.575-8.1677,1.1481c-2.2923.32-4.5856.6332-6.8779.9531-.3978.0555-.7915.144-1.19.1872a.8839.8839,0,0,1-.4894-.08c-1.7678-.9571-3.5268-1.93-5.2938-2.8891A.37.37,0,0,1,0,41.007q.0219-8.1411.0378-16.2822Q.0534,16.7142.0645,8.7035.07,5.0978.0674,1.4922C.0675,1.4179.0755,1.3437.0809,1.25Zm13.12,34.4485V4.5784a.6784.6784,0,0,0-.1258-.0109c-2.0125.2811-4.0243.5667-6.0376.8414-.2492.0341-.2485.18-.2488.3658q-.03,18.206-.0626,36.412c0,.1126.0143.2252.0236.3612l21.8017-3.0645V33.5419ZM5.0273,42.07c0-.1839,0-.3133,0-.4428q.016-7.26.0318-14.52.0191-10.8.0389-21.6007a.4168.4168,0,0,0-.2563-.4285c-.93-.494-1.8534-1.0019-2.78-1.5035-.0821-.0444-.17-.0788-.303-.14,0,.1595,0,.2747,0,.39q-.0031,3.6056-.0068,7.2112-.01,6.7543-.0238,13.5086-.0163,7.7495-.0278,15.4989a.4744.4744,0,0,0,.2093.3439c.9567.538,1.924,1.0572,2.8887,1.581C4.8538,41.9986,4.9135,42.02,5.0273,42.07Zm9.8525-8.325,11.7594-1.6537a23.0225,23.0225,0,0,0-2.1322-1.226,1.1067,1.1067,0,0,0-.6132-.11c-2.593.3518-5.1837.72-7.7748,1.0853-.4141.0584-.8272.1236-1.2392.1854ZM3.7068,2.4441,3.7,2.5269c.7709.4186,1.5406.84,2.3147,1.2519A.44.44,0,0,0,6.2634,3.8Q8.2925,3.526,10.32,3.2441c.3214-.0447.6413-.1.9618-.1512-.6788-.44-1.3694-.8011-2.043-1.1916a1.1628,1.1628,0,0,0-.8066-.1327c-1.0409.1554-2.084.2957-3.1261.4434C4.7729,2.2876,4.24,2.3666,3.7068,2.4441Z"/><path class="cls-2" d="M79.3414,16.4151H74.84V14.2808H86.3648v2.1343H81.8639V27.8609H79.3414Z"/><path class="cls-2" d="M97.151,27.8609l-2.7744-3.9771a5.0778,5.0778,0,0,1-.5235.02H90.7877v3.9575H88.2652v-13.58h5.5879a7.5119,7.5119,0,0,1,3.0742.582,4.4686,4.4686,0,0,1,2.0078,1.6685,4.6666,4.6666,0,0,1,.6993,2.58,4.608,4.608,0,0,1-.7471,2.6386,4.447,4.447,0,0,1-2.1436,1.649l3.1231,4.4619Zm-.9121-10.7476a3.8741,3.8741,0,0,0-2.503-.6982H90.7877v5.4126h2.9482a3.8343,3.8343,0,0,0,2.503-.7085,2.4608,2.4608,0,0,0,.8535-2.0078A2.4332,2.4332,0,0,0,96.2389,17.1133Z"/><path class="cls-2" d="M102.4459,14.2808h2.5224v13.58h-2.5224Z"/><path class="cls-2" d="M120.0416,22.0313a3.43,3.43,0,0,1,.66,2.1435A3.14,3.14,0,0,1,119.3433,26.9a6.8225,6.8225,0,0,1-3.957.96h-6.7519v-13.58h6.3632a6.2551,6.2551,0,0,1,3.7061.9409,3.0241,3.0241,0,0,1,1.3,2.59,3.4014,3.4014,0,0,1-.4658,1.7851,3.1892,3.1892,0,0,1-1.28,1.2027A3.5794,3.5794,0,0,1,120.0416,22.0313ZM111.1568,16.26v3.7441h3.5694a3.6227,3.6227,0,0,0,2.0273-.4755,1.5654,1.5654,0,0,0,.708-1.3868,1.5854,1.5854,0,0,0-.708-1.4067,3.6262,3.6262,0,0,0-2.0273-.4751Zm7.003,7.6631q0-1.9593-2.9288-1.9595h-4.0742v3.9185h4.0742Q118.1593,25.8819,118.16,23.9229Z"/><path class="cls-2" d="M124.8531,26.4737a6.1547,6.1547,0,0,1-1.5713-4.53V14.2808h2.5225v7.5659q0,3.9969,3.4531,3.9966,3.4337,0,3.4336-3.9966V14.2808h2.4834v7.6631a6.1752,6.1752,0,0,1-1.5615,4.53,6.8574,6.8574,0,0,1-8.76,0Z"/><path class="cls-2" d="M142.1412,16.4151H137.64V14.2808h11.5244v2.1343h-4.5009V27.8609h-2.5225Z"/><path class="cls-2" d="M151.065,14.2808h2.5225v13.58H151.065Z"/><path class="cls-2" d="M159.8531,27.1529a6.6723,6.6723,0,0,1-2.6182-2.503,7.21,7.21,0,0,1,0-7.1582,6.6727,6.6727,0,0,1,2.6182-2.5029,8.2227,8.2227,0,0,1,7.4883,0,6.7042,6.7042,0,0,1,2.6191,2.4932,7.2459,7.2459,0,0,1,0,7.1777,6.7014,6.7014,0,0,1-2.6191,2.4932,8.2235,8.2235,0,0,1-7.4883,0Zm6.1885-1.9209a4.4186,4.4186,0,0,0,1.708-1.7071,5.1662,5.1662,0,0,0,0-4.9082,4.4217,4.4217,0,0,0-1.708-1.707,5.1927,5.1927,0,0,0-4.8887,0,4.4185,4.4185,0,0,0-1.707,1.707,5.1589,5.1589,0,0,0,0,4.9082,4.4154,4.4154,0,0,0,1.707,1.7071,5.1927,5.1927,0,0,0,4.8887,0Z"/><path class="cls-2" d="M185.6549,14.2808v13.58h-2.0762L176.09,18.6651v9.1958h-2.5029v-13.58h2.0762l7.4882,9.1958V14.2808Z"/><path class="cls-2" d="M41.2867,14.2808h5.9365a8.5192,8.5192,0,0,1,3.86.8437,6.2539,6.2539,0,0,1,2.6191,2.3863,6.75,6.75,0,0,1,.9317,3.56,6.7493,6.7493,0,0,1-.9317,3.56,6.2511,6.2511,0,0,1-2.6191,2.3862,8.5192,8.5192,0,0,1-3.86.8438H41.2867Zm5.82,11.4463a5.7625,5.7625,0,0,0,2.6289-.5728,4.0888,4.0888,0,0,0,1.7451-1.6294,4.8076,4.8076,0,0,0,.6114-2.4541,4.8091,4.8091,0,0,0-.6114-2.4541,4.0954,4.0954,0,0,0-1.7451-1.6294,5.77,5.77,0,0,0-2.6289-.5722H43.8092v9.312Z"/><path class="cls-2" d="M57.3111,14.2808h2.5225v13.58H57.3111Z"/><path class="cls-2" d="M64.6724,27.6084a6.3265,6.3265,0,0,1-2.3173-1.1831l.872-1.9594a6.8719,6.8719,0,0,0,2.0469,1.0766,7.4436,7.4436,0,0,0,2.4356.417,4.2087,4.2087,0,0,0,2.26-.4849,1.4677,1.4677,0,0,0,.7461-1.28,1.2419,1.2419,0,0,0-.416-.9605,2.9543,2.9543,0,0,0-1.0566-.5918q-.6417-.2131-1.7461-.4848A20.2879,20.2879,0,0,1,64.983,21.42a4.139,4.139,0,0,1-1.6484-1.1543,3.11,3.11,0,0,1-.6885-2.1241,3.6325,3.6325,0,0,1,.61-2.0468A4.1377,4.1377,0,0,1,65.1,14.63a7.4652,7.4652,0,0,1,3.0156-.543,9.7505,9.7505,0,0,1,2.4453.3106,6.7788,6.7788,0,0,1,2.0762.8921l-.7949,1.9595a7.8753,7.8753,0,0,0-1.8633-.7955,6.96,6.96,0,0,0-1.8809-.2714,3.9363,3.9363,0,0,0-2.2226.5044,1.5567,1.5567,0,0,0-.7266,1.3383,1.2116,1.2116,0,0,0,.416.9507,3.0146,3.0146,0,0,0,1.0586.5821q.6387.2137,1.7461.4848a18.4319,18.4319,0,0,1,2.4824.7276A4.2549,4.2549,0,0,1,72.51,21.9244,3.0435,3.0435,0,0,1,73.2,24.02a3.5715,3.5715,0,0,1-.6113,2.0371,4.16,4.16,0,0,1-1.8536,1.4551,7.5339,7.5339,0,0,1-3.0253.5429A10.3643,10.3643,0,0,1,64.6724,27.6084Z"/></g></g></svg>