<svg xmlns="http://www.w3.org/2000/svg" viewBox="0 0 290.74 277.69"><defs><style>.a{fill:#2adaff;}.b{fill:none;stroke:#00e99e;stroke-miterlimit:10;stroke-width:2px;}</style></defs><title>L with Text Below</title><path class="a" d="M106.75,63.31,130.16,60c6.67-1,13.35-1.86,20-2.83a5.75,5.75,0,0,1,3.89.62q12.84,7.11,25.76,14a2,2,0,0,1,1.1,2.08q-.12,54.5-.21,109l0,24v1.7c2.38-.31,4.61-.58,6.84-.9,13.45-1.89,26.9-3.81,40.36-5.67a4,4,0,0,1,2.3.46q13.2,7.13,26.33,14.37a2.34,2.34,0,0,1,1.11,1.65c.05,13.87,0,27.73,0,41.6,0,1.42-.46,1.81-1.79,2-12.82,1.75-25.62,3.58-38.42,5.38q-20.43,2.88-40.84,5.74c-11.46,1.61-22.93,3.17-34.39,4.77-2,.28-4,.72-5.95.94a4.53,4.53,0,0,1-2.45-.4c-8.84-4.79-17.63-9.65-26.47-14.45a1.85,1.85,0,0,1-1-2q.12-40.71.19-81.41.07-40,.14-80.11,0-18,0-36C106.68,64.16,106.72,63.78,106.75,63.31Zm65.6,172.25V80a3.72,3.72,0,0,0-.63-.06c-10.06,1.41-20.12,2.84-30.19,4.21-1.25.17-1.24.9-1.24,1.83Q140.14,177,140,268c0,.56.08,1.13.12,1.81l109-15.33v-29.7Zm-40.87,31.86V265.2q.08-36.3.16-72.6.09-54,.19-108a2.06,2.06,0,0,0-1.28-2.14c-4.65-2.47-9.27-5-13.9-7.52-.41-.22-.85-.39-1.51-.7v2q0,18,0,36.06,0,33.76-.11,67.54-.09,38.75-.14,77.49a2.36,2.36,0,0,0,1,1.72c4.79,2.69,9.62,5.29,14.45,7.91C130.61,267.06,130.91,267.17,131.48,267.42Zm49.26-41.63,58.8-8.27a118.31,118.31,0,0,0-10.66-6.13,5.62,5.62,0,0,0-3.07-.55c-13,1.76-25.92,3.6-38.87,5.43-2.07.29-4.14.62-6.2.93ZM124.88,69.29l0,.41c3.86,2.09,7.71,4.2,11.58,6.26a2.15,2.15,0,0,0,1.24.1q10.14-1.36,20.28-2.77c1.61-.23,3.21-.51,4.81-.76-3.39-2.2-6.84-4-10.21-6a5.82,5.82,0,0,0-4-.66c-5.21.78-10.42,1.48-15.64,2.22C130.21,68.5,127.54,68.9,124.88,69.29Z" transform="translate(-36.63 -57.07)"/><path class="b" d="M113.74,310.48h-9v-4.27h23.05v4.27h-9v22.89h-5.05Z" transform="translate(-36.63 -57.07)"/><path class="b" d="M149.36,333.37l-5.55-7.95c-.23,0-.58,0-1.05,0h-6.13v7.91h-5V306.21h11.17a14.93,14.93,0,0,1,6.15,1.17,8.87,8.87,0,0,1,4,3.33,9.35,9.35,0,0,1,1.4,5.16,9.16,9.16,0,0,1-1.5,5.28,8.9,8.9,0,0,1-4.29,3.3l6.25,8.92Zm-1.82-21.49a7.77,7.77,0,0,0-5-1.4h-5.9v10.83h5.9a7.71,7.71,0,0,0,5-1.42,4.94,4.94,0,0,0,1.7-4A4.88,4.88,0,0,0,147.54,311.88Z" transform="translate(-36.63 -57.07)"/><path class="b" d="M160,306.21H165v27.16H160Z" transform="translate(-36.63 -57.07)"/><path class="b" d="M195.14,321.71a6.85,6.85,0,0,1,1.32,4.29,6.29,6.29,0,0,1-2.72,5.45q-2.72,1.92-7.91,1.92h-13.5V306.21h12.72q4.81,0,7.41,1.88a6,6,0,0,1,2.6,5.18,6.79,6.79,0,0,1-.93,3.57,6.33,6.33,0,0,1-2.56,2.41A7.16,7.16,0,0,1,195.14,321.71Zm-17.77-11.54v7.49h7.14a7.26,7.26,0,0,0,4.05-1,3.46,3.46,0,0,0,0-5.59,7.26,7.26,0,0,0-4.05-.95Zm14,15.33c0-2.62-2-3.92-5.86-3.92h-8.15v7.83h8.15C189.42,329.41,191.38,328.11,191.38,325.5Z" transform="translate(-36.63 -57.07)"/><path class="b" d="M204.76,330.6q-3.13-3.17-3.14-9.06V306.21h5v15.13q0,8,6.91,8t6.87-8V306.21h5v15.33q0,5.9-3.13,9.06t-8.75,3.16Q207.91,333.76,204.76,330.6Z" transform="translate(-36.63 -57.07)"/><path class="b" d="M239.34,310.48h-9v-4.27h23v4.27h-9v22.89h-5Z" transform="translate(-36.63 -57.07)"/><path class="b" d="M257.19,306.21h5v27.16h-5Z" transform="translate(-36.63 -57.07)"/><path class="b" d="M274.76,332a13.41,13.41,0,0,1-5.23-5,14.44,14.44,0,0,1,0-14.32,13.32,13.32,0,0,1,5.23-5,16.4,16.4,0,0,1,15,0,13.36,13.36,0,0,1,5.24,5A14.52,14.52,0,0,1,295,327a13.46,13.46,0,0,1-5.24,5,16.48,16.48,0,0,1-15,0Zm12.38-3.85a8.83,8.83,0,0,0,3.42-3.41,10.34,10.34,0,0,0,0-9.82,8.83,8.83,0,0,0-3.42-3.41,10.41,10.41,0,0,0-9.78,0,8.87,8.87,0,0,0-3.41,3.41,10.34,10.34,0,0,0,0,9.82,8.87,8.87,0,0,0,3.41,3.41,10.34,10.34,0,0,0,9.78,0Z" transform="translate(-36.63 -57.07)"/><path class="b" d="M326.37,306.21v27.16h-4.15l-15-18.39v18.39h-5V306.21h4.15l15,18.39V306.21Z" transform="translate(-36.63 -57.07)"/><path class="b" d="M37.63,306.21H49.5a17,17,0,0,1,7.73,1.69,12.53,12.53,0,0,1,5.23,4.77,14.49,14.49,0,0,1,0,14.24,12.4,12.4,0,0,1-5.23,4.77,17,17,0,0,1-7.73,1.69H37.63ZM49.27,329.1A11.57,11.57,0,0,0,54.53,328,8.16,8.16,0,0,0,58,324.7a10.49,10.49,0,0,0,0-9.82,8.13,8.13,0,0,0-3.49-3.25,11.45,11.45,0,0,0-5.26-1.15H42.68V329.1Z" transform="translate(-36.63 -57.07)"/><path class="b" d="M69.68,306.21h5v27.16h-5Z" transform="translate(-36.63 -57.07)"/><path class="b" d="M84.4,332.87a12.8,12.8,0,0,1-4.63-2.37l1.74-3.92a13.93,13.93,0,0,0,4.1,2.16,15,15,0,0,0,4.87.83,8.41,8.41,0,0,0,4.52-1A3,3,0,0,0,96.49,326a2.48,2.48,0,0,0-.83-1.92,6,6,0,0,0-2.12-1.19c-.85-.28-2-.6-3.49-1a40.86,40.86,0,0,1-5-1.47,8.15,8.15,0,0,1-3.29-2.31,6.21,6.21,0,0,1-1.38-4.25,7.28,7.28,0,0,1,1.22-4.09,8.23,8.23,0,0,1,3.69-2.93,15,15,0,0,1,6-1.09,19.18,19.18,0,0,1,4.89.63,13.31,13.31,0,0,1,4.15,1.78l-1.59,3.92A15.57,15.57,0,0,0,95,310.56a14.09,14.09,0,0,0-3.77-.55,7.88,7.88,0,0,0-4.44,1,3.13,3.13,0,0,0-1.46,2.68,2.4,2.4,0,0,0,.84,1.9,6.1,6.1,0,0,0,2.11,1.17c.86.28,2,.6,3.49,1a36.47,36.47,0,0,1,5,1.45,8.56,8.56,0,0,1,3.32,2.31,6.07,6.07,0,0,1,1.38,4.19,7.1,7.1,0,0,1-1.23,4.07,8.24,8.24,0,0,1-3.7,2.91,15,15,0,0,1-6,1.09A21,21,0,0,1,84.4,332.87Z" transform="translate(-36.63 -57.07)"/></svg>